<svg xmlns="http://www.w3.org/2000/svg" viewBox="710 0 83.7 92" fill="#E5BAC1"><path d="M 738.488281 24.351562 L 737.558594 23.5 L 710.476562 91.992188 L 726.460938 91.992188 L 743.957031 48.296875 C 747.300781 39.957031 745.121094 30.414062 738.488281 24.351562 "/><path d="M 802.210938 67.667969 L 782.234375 41.914062 L 803.722656 -11.023438 L 823.238281 40.558594 Z M 915.714844 38.988281 C 908.414062 2.191406 889.863281 -12.710938 876.808594 -18.851562 C 877.460938 -24.832031 878.792969 -32.769531 876.394531 -39.789062 C 867.015625 -65.847656 844.601562 -67.152344 830.167969 -61.609375 L 816.257812 -55.664062 L 835.109375 -9.757812 C 837.527344 -3.871094 845.183594 -2.394531 849.613281 -6.960938 L 851.695312 -9.105469 L 835.480469 -48.648438 C 859.195312 -58.8125 873.378906 -27.953125 857.457031 -3.5625 L 834.773438 25.683594 L 816.359375 -22.996094 C 814.621094 -27.589844 810.21875 -30.628906 805.308594 -30.628906 C 800.511719 -30.628906 796.195312 -27.730469 794.375 -23.292969 L 772.707031 29.632812 L 746.960938 -3.5625 C 731.039062 -27.953125 749.792969 -54.980469 773.605469 -47.628906 L 757.390625 -8.085938 L 759.46875 -5.941406 C 763.902344 -1.378906 771.558594 -2.851562 773.976562 -8.738281 L 792.828125 -54.644531 L 778.917969 -60.589844 C 763.640625 -65.414062 740.011719 -64.371094 729.933594 -38.3125 C 720.203125 -9.816406 740.332031 9.554688 751.824219 24.582031 C 751.960938 24.757812 752.082031 24.898438 752.195312 25.003906 L 766.890625 43.839844 L 747.34375 91.582031 L 755.058594 91.582031 C 759.296875 91.582031 763.109375 89.011719 764.707031 85.085938 L 776.46875 56.117188 L 791.9375 75.945312 C 797.152344 82.628906 807.265625 82.628906 812.480469 75.945312 L 828.742188 55.105469 L 840.578125 86.390625 C 841.761719 89.515625 844.753906 91.582031 848.09375 91.582031 L 859.707031 91.582031 L 840.300781 40.289062 L 852.226562 25.003906 C 852.335938 24.898438 852.457031 24.757812 852.59375 24.582031 C 858.652344 16.660156 867.101562 7.53125 872.320312 -3.5 C 881.824219 -2.09375 892.296875 11.617188 898.378906 28.648438 C 903.269531 42.335938 907.199219 71.222656 889.476562 77.875 L 878.378906 52.632812 L 866.859375 23.5 L 865.929688 24.351562 C 861.980469 27.964844 859.625 32.8125 859.058594 37.902344 L 858.9375 39.585938 C 858.84375 42.507812 859.328125 45.472656 860.460938 48.296875 L 877.960938 91.992188 L 891.082031 91.992188 C 905.375 91.992188 921.585938 68.589844 915.714844 38.988281 "/></svg>